<svg xmlns="http://www.w3.org/2000/svg" width="512" height="512" viewBox="0 0 512 512">
  <defs>
    <linearGradient id="bg" x1="0%" y1="0%" x2="100%" y2="100%">
      <stop offset="0%" style="stop-color:#7C3AED"/>
      <stop offset="100%" style="stop-color:#EC4899"/>
    </linearGradient>
  </defs>
  <rect width="512" height="512" rx="112" fill="url(#bg)"/>
  <!-- 日历主体 -->
  <rect x="128" y="140" width="256" height="240" rx="24" fill="white"/>
  <!-- 日历顶部条 -->
  <rect x="128" y="140" width="256" height="56" rx="24" fill="#7C3AED"/>
  <rect x="128" y="172" width="256" height="24" fill="#7C3AED"/>
  <!-- 日历挂钩 -->
  <rect x="168" y="120" width="16" height="40" rx="8" fill="#5B21B6"/>
  <rect x="328" y="120" width="16" height="40" rx="8" fill="#5B21B6"/>
  <!-- 心形 -->
  <path d="M256 280 C256 280, 224 256, 210 270 C196 284, 196 304, 210 318 L256 354 L302 318 C316 304, 316 284, 302 270 C288 256, 256 280, 256 280 Z" fill="#EC4899"/>
  <!-- 日期点 -->
  <circle cx="168" cy="220" r="8" fill="#A78BFA"/>
  <circle cx="200" cy="220" r="8" fill="#D1D5DB"/>
  <circle cx="232" cy="220" r="8" fill="#D1D5DB"/>
  <circle cx="264" cy="220" r="8" fill="#D1D5DB"/>
  <circle cx="296" cy="220" r="8" fill="#D1D5DB"/>
  <circle cx="328" cy="220" r="8" fill="#D1D5DB"/>
  <circle cx="344" cy="220" r="8" fill="#D1D5DB"/>
</svg>
